<svg xmlns="http://www.w3.org/2000/svg" viewBox="0 0 64.43 64.43"><defs><style>.cls-1{fill:#231f20;}</style></defs><title>ATYOLK-Logo_Asset 5</title><g id="Layer_2" data-name="Layer 2"><g id="Layer_1-2" data-name="Layer 1"><path class="cls-1" d="M0,30.77a32.22,32.22,0,1,0,64.4,1.45A32.25,32.25,0,0,0,32.23,0c-.48,0-1,0-1.45,0A32.41,32.41,0,0,0,0,30.77Zm20.56-7.06A14.41,14.41,0,1,1,40.73,43.84a14.28,14.28,0,0,1-8.52,2.78,15.36,15.36,0,0,1-4.6-.71,14.08,14.08,0,0,1-9.08-9.08A14.57,14.57,0,0,1,20.59,23.71Z"/></g></g></svg>