<svg xmlns="http://www.w3.org/2000/svg" viewBox="0 0 65.67 322.95"><defs><style>.cls-1{fill:#231f20;}</style></defs><title>ATYOLK-logo-vertical</title><g id="Layer_2" data-name="Layer 2"><g id="Layer_1-2" data-name="Layer 1"><path class="cls-1" d="M27.36,219.69H62.58v17.84H3.09V219.69H9.52V176.86H27.36ZM24.92,12.35H22.21L27,0h2.51l4.83,12.35H31.67l-1-2.43H25.9Zm1.84-4.76h3.07l-1.53-4ZM40.4,12.35H43V2.42h3.55V0H36.85V2.42H40.4ZM23.91,79.62H41.76v-26L65.67,29.69,53.05,17.08,32.83,37.29,12.62,17.08,0,29.69,23.91,53.61ZM48.75,259.49,29.64,278.6l-7.5-7.5V261H4.3v60.67H22.14V311.34l7.5-7.5L48.75,323l12.62-12.62L42.26,291.22l19.11-19.11ZM55.1,104.72A31.91,31.91,0,0,1,65.05,128,32.22,32.22,0,1,1,31.39,95.8c.49,0,1,0,1.46,0A31.92,31.92,0,0,1,55.1,104.72ZM47.25,128a14.43,14.43,0,1,0-28.11,4.62,14,14,0,0,0,9.09,9.07,15.28,15.28,0,0,0,4.6.72A14.43,14.43,0,0,0,47.25,128Z"/></g></g></svg>