<svg xmlns="http://www.w3.org/2000/svg" viewBox="0 0 238.16 261.1"><defs><style>.cls-1{fill:#231f20;}</style></defs><title>Logo</title><g id="Layer_2" data-name="Layer 2"><g id="Art"><path id="Logo" class="cls-1" d="M48.28,227.75h56.93V256.6H9V227.75h10.4V158.52H48.28ZM40.29,20H35.9L43.72,0h4.05l7.81,20H51.19L49.59,16H41.86Zm3-7.7h5L45.74,5.76ZM65.31,20h4.22V3.91h5.74V0H59.57V3.91h5.74ZM53.08,60.28,20.4,27.6,0,48,38.65,86.66v42.06H67.5V86.66L106.16,48,85.76,27.6Zm162.77,98.24L185,189.41l-12.13-12.13V160.92H144V259h28.85V242.34L185,230.21l30.89,30.89,20.4-20.4-30.89-30.89,30.89-30.89Zm-67.39-44.38a51.66,51.66,0,0,1-14.41-38.32,52.39,52.39,0,0,1,49.7-49.69c.79,0,1.57-.05,2.35-.05a52.08,52.08,0,0,1,0,104.16A51.62,51.62,0,0,1,148.46,114.14ZM164,85.62a22.75,22.75,0,0,0,14.69,14.67,24.6,24.6,0,0,0,7.43,1.16A23.13,23.13,0,0,0,199.84,97,23.27,23.27,0,1,0,164,85.62Z"/></g></g></svg>