<svg xmlns="http://www.w3.org/2000/svg" viewBox="0 0 335.56 81.6"><defs><style>.cls-1{fill:#231f20;}</style></defs><title>Logo</title><g id="Layer_2" data-name="Layer 2"><g id="Layer_1-2" data-name="Layer 1"><path id="Logo" class="cls-1" d="M208.65,62h35.21V79.82H184.37V62h6.43V19.15h17.85ZM65.67,29.9,41.76,53.81v26H23.91v-26L0,29.9,12.62,17.28,32.83,37.49,53.05,17.28ZM316.46,49.38l19.1,19.11L323,81.11,303.84,62l-7.5,7.51V79.82H278.49V19.15h17.85V29.26l7.5,7.5,19.1-19.1,12.62,12.62ZM121.65,17.17c-.48,0-1,0-1.45,0A32.41,32.41,0,0,0,89.45,47.94a32.2,32.2,0,1,0,32.2-30.77ZM130.15,61a14.28,14.28,0,0,1-8.52,2.78,15.36,15.36,0,0,1-4.6-.71A14.08,14.08,0,0,1,108,54a14.43,14.43,0,1,1,22.2,7ZM33.57,12.35H30.85l-1-2.43H25.08l-1,2.43H21.39L26.23,0h2.5ZM25.94,7.59H29l-1.54-4ZM45.74,0V2.42H42.2v9.93H39.59V2.42H36V0Z"/></g></g></svg>